<?xml version="1.0" encoding="UTF-8" standalone="no"?>
<svg
   height="128px"
   viewBox="0 0 128 128"
   width="128px"
   version="1.1"
   id="svg75"
   sodipodi:docname="com.github.diegoivanme.plano.svg"
   inkscape:version="1.1 (c68e22c387, 2021-05-23)"
   xmlns:inkscape="http://www.inkscape.org/namespaces/inkscape"
   xmlns:sodipodi="http://sodipodi.sourceforge.net/DTD/sodipodi-0.dtd"
   xmlns="http://www.w3.org/2000/svg"
   xmlns:svg="http://www.w3.org/2000/svg">
  <defs
     id="defs79" />
  <sodipodi:namedview
     id="namedview77"
     pagecolor="#ffffff"
     bordercolor="#666666"
     borderopacity="1.0"
     inkscape:pageshadow="2"
     inkscape:pageopacity="0.0"
     inkscape:pagecheckerboard="0"
     showgrid="false"
     inkscape:zoom="7.25"
     inkscape:cx="49.448276"
     inkscape:cy="36.827586"
     inkscape:window-width="1366"
     inkscape:window-height="699"
     inkscape:window-x="0"
     inkscape:window-y="0"
     inkscape:window-maximized="1"
     inkscape:current-layer="svg75" />
  <linearGradient
     id="a"
     gradientTransform="matrix(0.196428 0 0 0.342105 2.59729 273.740051)"
     gradientUnits="userSpaceOnUse"
     x1="88.595886"
     x2="536.595886"
     y1="-449.394012"
     y2="-449.394012">
    <stop
       offset="0"
       stop-color="#77767b"
       id="stop2" />
    <stop
       offset="0.0500001"
       stop-color="#c0bfbc"
       id="stop4" />
    <stop
       offset="0.099807"
       stop-color="#9a9996"
       id="stop6" />
    <stop
       offset="0.900001"
       stop-color="#9a9996"
       id="stop8" />
    <stop
       offset="0.950001"
       stop-color="#c0bfbc"
       id="stop10" />
    <stop
       offset="1"
       stop-color="#77767b"
       id="stop12" />
  </linearGradient>
  <path
     d="m 28 16 h 72 c 4.417969 0 8 3.582031 8 8 v 88 c 0 4.417969 -3.582031 8 -8 8 h -72 c -4.417969 0 -8 -3.582031 -8 -8 v -88 c 0 -4.417969 3.582031 -8 8 -8 z m 0 0"
     fill="url(#a)"
     id="path15" />
  <path
     d="m 28 8 h 72 c 4.417969 0 8 3.582031 8 8 v 92 c 0 4.417969 -3.582031 8 -8 8 h -72 c -4.417969 0 -8 -3.582031 -8 -8 v -92 c 0 -4.417969 3.582031 -8 8 -8 z m 0 0"
     fill="#deddda"
     id="path17" />
  <path
     d="m 31.457031 60.691406 h 18.832031 c 0.945313 0 1.710938 0.429688 1.710938 0.957032 v 10.074218 c 0 0.53125 -0.765625 0.960938 -1.710938 0.960938 h -18.832031 c -0.945312 0 -1.710937 -0.429688 -1.710937 -0.960938 v -10.074218 c 0 -0.527344 0.765625 -0.957032 1.710937 -0.957032 z m 0 0"
     fill="#c0bfbc"
     id="path19" />
  <path
     d="m 31.457031 60.210938 h 18.832031 c 0.945313 0 1.710938 0.429687 1.710938 0.957031 v 10.074219 c 0 0.53125 -0.765625 0.960937 -1.710938 0.960937 h -18.832031 c -0.945312 0 -1.710937 -0.429687 -1.710937 -0.960937 v -10.074219 c 0 -0.527344 0.765625 -0.957031 1.710937 -0.957031 z m 0 0"
     fill="#c0bfbc"
     id="path21" />
  <path
     d="m 31.457031 77.074219 h 18.832031 c 0.945313 0 1.710938 0.429687 1.710938 0.957031 v 10.074219 c 0 0.53125 -0.765625 0.960937 -1.710938 0.960937 h -18.832031 c -0.945312 0 -1.710937 -0.429687 -1.710937 -0.960937 v -10.074219 c 0 -0.527344 0.765625 -0.957031 1.710937 -0.957031 z m 0 0"
     fill="#c0bfbc"
     id="path23" />
  <path
     d="m 31.457031 76.59375 h 18.832031 c 0.945313 0 1.710938 0.429688 1.710938 0.957031 v 10.074219 c 0 0.53125 -0.765625 0.960938 -1.710938 0.960938 h -18.832031 c -0.945312 0 -1.710937 -0.429688 -1.710937 -0.960938 v -10.074219 c 0 -0.527343 0.765625 -0.957031 1.710937 -0.957031 z m 0 0"
     fill="#c0bfbc"
     id="path25" />
  <path
     d="m 89.644531 103.601562 v -37.933593 c 0 -1.90625 0.355469 -3.449219 0.796875 -3.449219 h 8.371094 c 0.4375 0 0.796875 1.542969 0.796875 3.449219 v 37.933593 c 0 1.90625 -0.359375 3.449219 -0.796875 3.449219 h -8.371094 c -0.441406 0 -0.796875 -1.542969 -0.796875 -3.449219 z m 0 0"
     fill="#c01c28"
     id="path27" />
  <path
     d="m 89.246094 103.601562 v -37.933593 c 0 -1.90625 0.355468 -3.449219 0.796875 -3.449219 h 8.371093 c 0.4375 0 0.796876 1.542969 0.796876 3.449219 v 37.933593 c 0 1.90625 -0.359376 3.449219 -0.796876 3.449219 h -8.371093 c -0.441407 0 -0.796875 -1.542969 -0.796875 -3.449219 z m 0 0"
     fill="#c01c28"
     id="path29" />
  <path
     d="m 89.210938 99.414062 v -38.683593 c 0 -1.941407 0.371093 -3.515625 0.828124 -3.515625 h 8.703126 c 0.460937 0 0.832031 1.574218 0.832031 3.515625 v 38.683593 c 0 1.941407 -0.371094 3.515626 -0.832031 3.515626 h -8.703126 c -0.457031 0 -0.828124 -1.574219 -0.828124 -3.515626 z m 0 0"
     fill="#ed333b"
     id="path31" />
  <path
     d="m 33.613281 95.058594 h 42.519531 c 2.136719 0 3.867188 0.429687 3.867188 0.957031 v 10.074219 c 0 0.53125 -1.730469 0.960937 -3.867188 0.960937 h -42.519531 c -2.136719 0 -3.867187 -0.429687 -3.867187 -0.960937 v -10.074219 c 0 -0.527344 1.730468 -0.957031 3.867187 -0.957031 z m 0 0"
     fill="#1a5fb4"
     id="path33"
     style="fill:#26a269" />
  <path
     d="m 33.613281 94.578125 h 42.519531 c 2.136719 0 3.867188 0.429687 3.867188 0.960937 v 10.074219 c 0 0.527344 -1.730469 0.957031 -3.867188 0.957031 h -42.519531 c -2.136719 0 -3.867187 -0.429687 -3.867187 -0.957031 v -10.074219 c 0 -0.53125 1.730468 -0.960937 3.867187 -0.960937 z m 0 0"
     fill="#1a5fb4"
     id="path35"
     style="fill:#26a269" />
  <path
     d="m 59.457031 77.074219 h 18.832031 c 0.945313 0 1.710938 0.429687 1.710938 0.957031 v 10.074219 c 0 0.53125 -0.765625 0.960937 -1.710938 0.960937 h -18.832031 c -0.945312 0 -1.710937 -0.429687 -1.710937 -0.960937 v -10.074219 c 0 -0.527344 0.765625 -0.957031 1.710937 -0.957031 z m 0 0"
     fill="#c0bfbc"
     id="path37" />
  <path
     d="m 59.457031 76.59375 h 18.832031 c 0.945313 0 1.710938 0.429688 1.710938 0.957031 v 10.074219 c 0 0.53125 -0.765625 0.960938 -1.710938 0.960938 h -18.832031 c -0.945312 0 -1.710937 -0.429688 -1.710937 -0.960938 v -10.074219 c 0 -0.527343 0.765625 -0.957031 1.710937 -0.957031 z m 0 0"
     fill="#c0bfbc"
     id="path39" />
  <path
     d="m 59.457031 60.691406 h 18.832031 c 0.945313 0 1.710938 0.429688 1.710938 0.957032 v 10.074218 c 0 0.53125 -0.765625 0.960938 -1.710938 0.960938 h -18.832031 c -0.945312 0 -1.710937 -0.429688 -1.710937 -0.960938 v -10.074218 c 0 -0.527344 0.765625 -0.957032 1.710937 -0.957032 z m 0 0"
     fill="#c0bfbc"
     id="path41" />
  <path
     d="m 59.457031 60.210938 h 18.832031 c 0.945313 0 1.710938 0.429687 1.710938 0.957031 v 10.074219 c 0 0.53125 -0.765625 0.960937 -1.710938 0.960937 h -18.832031 c -0.945312 0 -1.710937 -0.429687 -1.710937 -0.960937 v -10.074219 c 0 -0.527344 0.765625 -0.957031 1.710937 -0.957031 z m 0 0"
     fill="#c0bfbc"
     id="path43" />
  <path
     d="m 33.613281 92.015625 h 42.519531 c 2.136719 0 3.867188 0.390625 3.867188 0.871094 v 9.179687 c 0 0.480469 -1.730469 0.875 -3.867188 0.875 h -42.519531 c -2.136719 0 -3.867187 -0.394531 -3.867187 -0.875 v -9.179687 c 0 -0.480469 1.730468 -0.871094 3.867187 -0.871094 z m 0 0"
     fill="#3584e4"
     id="path45"
     style="fill:#33d17a" />
  <path
     d="m 33.613281 91.578125 h 42.519531 c 2.136719 0 3.867188 0.390625 3.867188 0.875 v 9.175781 c 0 0.480469 -1.730469 0.875 -3.867188 0.875 h -42.519531 c -2.136719 0 -3.867187 -0.394531 -3.867187 -0.875 v -9.175781 c 0 -0.484375 1.730468 -0.875 3.867187 -0.875 z m 0 0"
     fill="#3584e4"
     id="path47"
     style="fill:#33d17a" />
  <g
     fill="#ffffff"
     id="g65">
    <path
       d="m 31.457031 74.019531 h 18.832031 c 0.945313 0 1.710938 0.378907 1.710938 0.851563 v 8.933594 c 0 0.46875 -0.765625 0.851562 -1.710938 0.851562 h -18.832031 c -0.945312 0 -1.710937 -0.382812 -1.710937 -0.851562 v -8.933594 c 0 -0.472656 0.765625 -0.851563 1.710937 -0.851563 z m 0 0"
       id="path49" />
    <path
       d="m 31.457031 73.59375 h 18.832031 c 0.945313 0 1.710938 0.378906 1.710938 0.851562 v 8.933594 c 0 0.472656 -0.765625 0.851563 -1.710938 0.851563 h -18.832031 c -0.945312 0 -1.710937 -0.378907 -1.710937 -0.851563 v -8.933594 c 0 -0.472656 0.765625 -0.851562 1.710937 -0.851562 z m 0 0"
       id="path51" />
    <path
       d="m 59.457031 57.636719 h 18.832031 c 0.945313 0 1.710938 0.378906 1.710938 0.851562 v 8.933594 c 0 0.46875 -0.765625 0.851563 -1.710938 0.851563 h -18.832031 c -0.945312 0 -1.710937 -0.382813 -1.710937 -0.851563 v -8.933594 c 0 -0.472656 0.765625 -0.851562 1.710937 -0.851562 z m 0 0"
       id="path53" />
    <path
       d="m 59.457031 57.210938 h 18.832031 c 0.945313 0 1.710938 0.378906 1.710938 0.851562 v 8.933594 c 0 0.46875 -0.765625 0.851562 -1.710938 0.851562 h -18.832031 c -0.945312 0 -1.710937 -0.382812 -1.710937 -0.851562 v -8.933594 c 0 -0.472656 0.765625 -0.851562 1.710937 -0.851562 z m 0 0"
       id="path55" />
    <path
       d="m 59.457031 74.019531 h 18.832031 c 0.945313 0 1.710938 0.378907 1.710938 0.851563 v 8.933594 c 0 0.46875 -0.765625 0.851562 -1.710938 0.851562 h -18.832031 c -0.945312 0 -1.710937 -0.382812 -1.710937 -0.851562 v -8.933594 c 0 -0.472656 0.765625 -0.851563 1.710937 -0.851563 z m 0 0"
       id="path57" />
    <path
       d="m 59.457031 73.59375 h 18.832031 c 0.945313 0 1.710938 0.378906 1.710938 0.851562 v 8.933594 c 0 0.46875 -0.765625 0.851563 -1.710938 0.851563 h -18.832031 c -0.945312 0 -1.710937 -0.382813 -1.710937 -0.851563 v -8.933594 c 0 -0.472656 0.765625 -0.851562 1.710937 -0.851562 z m 0 0"
       id="path59" />
    <path
       d="m 31.457031 57.636719 h 18.832031 c 0.945313 0 1.710938 0.378906 1.710938 0.851562 v 8.933594 c 0 0.46875 -0.765625 0.851563 -1.710938 0.851563 h -18.832031 c -0.945312 0 -1.710937 -0.382813 -1.710937 -0.851563 v -8.933594 c 0 -0.472656 0.765625 -0.851562 1.710937 -0.851562 z m 0 0"
       id="path61" />
    <path
       d="m 31.457031 57.210938 h 18.832031 c 0.945313 0 1.710938 0.378906 1.710938 0.851562 v 8.933594 c 0 0.46875 -0.765625 0.851562 -1.710938 0.851562 h -18.832031 c -0.945312 0 -1.710937 -0.382812 -1.710937 -0.851562 v -8.933594 c 0 -0.472656 0.765625 -0.851562 1.710937 -0.851562 z m 0 0"
       id="path63" />
  </g>
  <path
     d="M 34.476562,21.480469 H 94.867188 C 99,21.480469 99,21.480469 99,25.734375 v 21.648437 c 0,4.601563 0.433594,4.171876 -2.765625,4.160157 L 34.203125,51.359375 C 30.375,51.359375 30.375,50.949219 30.375,46.839844 V 25.574219 c 0,-4.09375 0,-4.09375 4.101562,-4.09375 z m 0,0"
     fill="#c0bfbc"
     id="path67" />
  <path
     d="M 34.710943,19.984378 H 94.95313 c 4.121092,0 4.121092,0 4.121092,3.597719 v 18.305 c 0,3.894599 0.433594,3.531313 -2.757811,3.519593 L 34.437504,45.254343 c -3.820313,0 -3.820313,-0.347663 -3.820313,-3.824285 V 23.445376 c 0,-3.460998 0,-3.460998 4.093752,-3.460998 z m 0,0"
     fill="#f6f5f4"
     stroke="#77767b"
     stroke-width="1.13514"
     id="path69"
     style="stroke-width:2.5;stroke-miterlimit:4;stroke-dasharray:none" />
</svg>
