<?xml version="1.0" encoding="UTF-8"?>
<svg height="128px" viewBox="0 0 128 128" width="128px" xmlns="http://www.w3.org/2000/svg" xmlns:xlink="http://www.w3.org/1999/xlink">
    <linearGradient id="a" gradientTransform="matrix(0.196428 0 0 0.342105 2.59729 273.740051)" gradientUnits="userSpaceOnUse" x1="88.595886" x2="536.595886" y1="-449.394012" y2="-449.394012">
        <stop offset="0" stop-color="#77767b"/>
        <stop offset="0.0500001" stop-color="#c0bfbc"/>
        <stop offset="0.099807" stop-color="#9a9996"/>
        <stop offset="0.900001" stop-color="#9a9996"/>
        <stop offset="0.950001" stop-color="#c0bfbc"/>
        <stop offset="1" stop-color="#77767b"/>
    </linearGradient>
    <clipPath id="b">
        <rect height="128" width="128"/>
    </clipPath>
    <clipPath id="c">
        <rect height="128" width="128"/>
    </clipPath>
    <filter id="d" height="100%" width="100%" x="0%" y="0%">
        <feColorMatrix in="SourceGraphic" type="matrix" values="0 0 0 0 1 0 0 0 0 1 0 0 0 0 1 0 0 0 1 0"/>
    </filter>
    <mask id="e">
        <g clip-path="url(#c)" filter="url(#d)">
            <g clip-path="url(#b)">
                <path d="m 28 16 h 72 c 4.417969 0 8 3.582031 8 8 v 88 c 0 4.417969 -3.582031 8 -8 8 h -72 c -4.417969 0 -8 -3.582031 -8 -8 v -88 c 0 -4.417969 3.582031 -8 8 -8 z m 0 0" fill="url(#a)"/>
                <path d="m 28 8 h 72 c 4.417969 0 8 3.582031 8 8 v 92 c 0 4.417969 -3.582031 8 -8 8 h -72 c -4.417969 0 -8 -3.582031 -8 -8 v -92 c 0 -4.417969 3.582031 -8 8 -8 z m 0 0" fill="#deddda"/>
                <path d="m 31.457031 60.691406 h 18.832031 c 0.945313 0 1.710938 0.429688 1.710938 0.957032 v 10.074218 c 0 0.53125 -0.765625 0.960938 -1.710938 0.960938 h -18.832031 c -0.945312 0 -1.710937 -0.429688 -1.710937 -0.960938 v -10.074218 c 0 -0.527344 0.765625 -0.957032 1.710937 -0.957032 z m 0 0" fill="#c0bfbc"/>
                <path d="m 31.457031 60.210938 h 18.832031 c 0.945313 0 1.710938 0.429687 1.710938 0.957031 v 10.074219 c 0 0.53125 -0.765625 0.960937 -1.710938 0.960937 h -18.832031 c -0.945312 0 -1.710937 -0.429687 -1.710937 -0.960937 v -10.074219 c 0 -0.527344 0.765625 -0.957031 1.710937 -0.957031 z m 0 0" fill="#c0bfbc"/>
                <path d="m 31.457031 77.074219 h 18.832031 c 0.945313 0 1.710938 0.429687 1.710938 0.957031 v 10.074219 c 0 0.53125 -0.765625 0.960937 -1.710938 0.960937 h -18.832031 c -0.945312 0 -1.710937 -0.429687 -1.710937 -0.960937 v -10.074219 c 0 -0.527344 0.765625 -0.957031 1.710937 -0.957031 z m 0 0" fill="#c0bfbc"/>
                <path d="m 31.457031 76.59375 h 18.832031 c 0.945313 0 1.710938 0.429688 1.710938 0.957031 v 10.074219 c 0 0.53125 -0.765625 0.960938 -1.710938 0.960938 h -18.832031 c -0.945312 0 -1.710937 -0.429688 -1.710937 -0.960938 v -10.074219 c 0 -0.527343 0.765625 -0.957031 1.710937 -0.957031 z m 0 0" fill="#c0bfbc"/>
                <path d="m 89.644531 103.601562 v -37.933593 c 0 -1.90625 0.355469 -3.449219 0.796875 -3.449219 h 8.371094 c 0.4375 0 0.796875 1.542969 0.796875 3.449219 v 37.933593 c 0 1.90625 -0.359375 3.449219 -0.796875 3.449219 h -8.371094 c -0.441406 0 -0.796875 -1.542969 -0.796875 -3.449219 z m 0 0" fill="#c01c28"/>
                <path d="m 89.246094 103.601562 v -37.933593 c 0 -1.90625 0.355468 -3.449219 0.796875 -3.449219 h 8.371093 c 0.4375 0 0.796876 1.542969 0.796876 3.449219 v 37.933593 c 0 1.90625 -0.359376 3.449219 -0.796876 3.449219 h -8.371093 c -0.441407 0 -0.796875 -1.542969 -0.796875 -3.449219 z m 0 0" fill="#c01c28"/>
                <path d="m 89.210938 99.414062 v -38.683593 c 0 -1.941407 0.371093 -3.515625 0.828124 -3.515625 h 8.703126 c 0.460937 0 0.832031 1.574218 0.832031 3.515625 v 38.683593 c 0 1.941407 -0.371094 3.515626 -0.832031 3.515626 h -8.703126 c -0.457031 0 -0.828124 -1.574219 -0.828124 -3.515626 z m 0 0" fill="#ed333b"/>
                <path d="m 33.613281 95.058594 h 42.519531 c 2.136719 0 3.867188 0.429687 3.867188 0.957031 v 10.074219 c 0 0.53125 -1.730469 0.960937 -3.867188 0.960937 h -42.519531 c -2.136719 0 -3.867187 -0.429687 -3.867187 -0.960937 v -10.074219 c 0 -0.527344 1.730468 -0.957031 3.867187 -0.957031 z m 0 0" fill="#26a269"/>
                <path d="m 33.613281 94.578125 h 42.519531 c 2.136719 0 3.867188 0.429687 3.867188 0.960937 v 10.074219 c 0 0.527344 -1.730469 0.957031 -3.867188 0.957031 h -42.519531 c -2.136719 0 -3.867187 -0.429687 -3.867187 -0.957031 v -10.074219 c 0 -0.53125 1.730468 -0.960937 3.867187 -0.960937 z m 0 0" fill="#26a269"/>
                <path d="m 59.457031 77.074219 h 18.832031 c 0.945313 0 1.710938 0.429687 1.710938 0.957031 v 10.074219 c 0 0.53125 -0.765625 0.960937 -1.710938 0.960937 h -18.832031 c -0.945312 0 -1.710937 -0.429687 -1.710937 -0.960937 v -10.074219 c 0 -0.527344 0.765625 -0.957031 1.710937 -0.957031 z m 0 0" fill="#c0bfbc"/>
                <path d="m 59.457031 76.59375 h 18.832031 c 0.945313 0 1.710938 0.429688 1.710938 0.957031 v 10.074219 c 0 0.53125 -0.765625 0.960938 -1.710938 0.960938 h -18.832031 c -0.945312 0 -1.710937 -0.429688 -1.710937 -0.960938 v -10.074219 c 0 -0.527343 0.765625 -0.957031 1.710937 -0.957031 z m 0 0" fill="#c0bfbc"/>
                <path d="m 59.457031 60.691406 h 18.832031 c 0.945313 0 1.710938 0.429688 1.710938 0.957032 v 10.074218 c 0 0.53125 -0.765625 0.960938 -1.710938 0.960938 h -18.832031 c -0.945312 0 -1.710937 -0.429688 -1.710937 -0.960938 v -10.074218 c 0 -0.527344 0.765625 -0.957032 1.710937 -0.957032 z m 0 0" fill="#c0bfbc"/>
                <path d="m 59.457031 60.210938 h 18.832031 c 0.945313 0 1.710938 0.429687 1.710938 0.957031 v 10.074219 c 0 0.53125 -0.765625 0.960937 -1.710938 0.960937 h -18.832031 c -0.945312 0 -1.710937 -0.429687 -1.710937 -0.960937 v -10.074219 c 0 -0.527344 0.765625 -0.957031 1.710937 -0.957031 z m 0 0" fill="#c0bfbc"/>
                <path d="m 33.613281 92.015625 h 42.519531 c 2.136719 0 3.867188 0.390625 3.867188 0.871094 v 9.179687 c 0 0.480469 -1.730469 0.875 -3.867188 0.875 h -42.519531 c -2.136719 0 -3.867187 -0.394531 -3.867187 -0.875 v -9.179687 c 0 -0.480469 1.730468 -0.871094 3.867187 -0.871094 z m 0 0" fill="#33d17a"/>
                <path d="m 33.613281 91.578125 h 42.519531 c 2.136719 0 3.867188 0.390625 3.867188 0.875 v 9.175781 c 0 0.480469 -1.730469 0.875 -3.867188 0.875 h -42.519531 c -2.136719 0 -3.867187 -0.394531 -3.867187 -0.875 v -9.175781 c 0 -0.484375 1.730468 -0.875 3.867187 -0.875 z m 0 0" fill="#33d17a"/>
                <path d="m 31.457031 74.019531 h 18.832031 c 0.945313 0 1.710938 0.378907 1.710938 0.851563 v 8.933594 c 0 0.46875 -0.765625 0.851562 -1.710938 0.851562 h -18.832031 c -0.945312 0 -1.710937 -0.382812 -1.710937 -0.851562 v -8.933594 c 0 -0.472656 0.765625 -0.851563 1.710937 -0.851563 z m 0 0" fill="#ffffff"/>
                <path d="m 31.457031 73.59375 h 18.832031 c 0.945313 0 1.710938 0.378906 1.710938 0.851562 v 8.933594 c 0 0.472656 -0.765625 0.851563 -1.710938 0.851563 h -18.832031 c -0.945312 0 -1.710937 -0.378907 -1.710937 -0.851563 v -8.933594 c 0 -0.472656 0.765625 -0.851562 1.710937 -0.851562 z m 0 0" fill="#ffffff"/>
                <path d="m 59.457031 57.636719 h 18.832031 c 0.945313 0 1.710938 0.378906 1.710938 0.851562 v 8.933594 c 0 0.46875 -0.765625 0.851563 -1.710938 0.851563 h -18.832031 c -0.945312 0 -1.710937 -0.382813 -1.710937 -0.851563 v -8.933594 c 0 -0.472656 0.765625 -0.851562 1.710937 -0.851562 z m 0 0" fill="#ffffff"/>
                <path d="m 59.457031 57.210938 h 18.832031 c 0.945313 0 1.710938 0.378906 1.710938 0.851562 v 8.933594 c 0 0.46875 -0.765625 0.851562 -1.710938 0.851562 h -18.832031 c -0.945312 0 -1.710937 -0.382812 -1.710937 -0.851562 v -8.933594 c 0 -0.472656 0.765625 -0.851562 1.710937 -0.851562 z m 0 0" fill="#ffffff"/>
                <path d="m 59.457031 74.019531 h 18.832031 c 0.945313 0 1.710938 0.378907 1.710938 0.851563 v 8.933594 c 0 0.46875 -0.765625 0.851562 -1.710938 0.851562 h -18.832031 c -0.945312 0 -1.710937 -0.382812 -1.710937 -0.851562 v -8.933594 c 0 -0.472656 0.765625 -0.851563 1.710937 -0.851563 z m 0 0" fill="#ffffff"/>
                <path d="m 59.457031 73.59375 h 18.832031 c 0.945313 0 1.710938 0.378906 1.710938 0.851562 v 8.933594 c 0 0.46875 -0.765625 0.851563 -1.710938 0.851563 h -18.832031 c -0.945312 0 -1.710937 -0.382813 -1.710937 -0.851563 v -8.933594 c 0 -0.472656 0.765625 -0.851562 1.710937 -0.851562 z m 0 0" fill="#ffffff"/>
                <path d="m 31.457031 57.636719 h 18.832031 c 0.945313 0 1.710938 0.378906 1.710938 0.851562 v 8.933594 c 0 0.46875 -0.765625 0.851563 -1.710938 0.851563 h -18.832031 c -0.945312 0 -1.710937 -0.382813 -1.710937 -0.851563 v -8.933594 c 0 -0.472656 0.765625 -0.851562 1.710937 -0.851562 z m 0 0" fill="#ffffff"/>
                <path d="m 31.457031 57.210938 h 18.832031 c 0.945313 0 1.710938 0.378906 1.710938 0.851562 v 8.933594 c 0 0.46875 -0.765625 0.851562 -1.710938 0.851562 h -18.832031 c -0.945312 0 -1.710937 -0.382812 -1.710937 -0.851562 v -8.933594 c 0 -0.472656 0.765625 -0.851562 1.710937 -0.851562 z m 0 0" fill="#ffffff"/>
                <path d="m 34.476562 19.480469 h 60.390626 c 4.132812 0 4.132812 0 4.132812 4.253906 v 21.648437 c 0 4.601563 0.433594 4.171876 -2.765625 4.160157 l -62.03125 -0.183594 c -3.828125 0 -3.828125 -0.410156 -3.828125 -4.519531 v -21.265625 c 0 -4.09375 0 -4.09375 4.101562 -4.09375 z m 0 0" fill="#c0bfbc"/>
                <path d="m 34.710938 17.984375 h 60.242187 c 4.121094 0 4.121094 0 4.121094 3.597656 v 18.304688 c 0 3.894531 0.433593 3.53125 -2.757813 3.519531 l -61.878906 -0.152344 c -3.820312 0 -3.820312 -0.347656 -3.820312 -3.824218 v -17.984376 c 0 -3.460937 0 -3.460937 4.09375 -3.460937 z m 0 0" fill="#f6f5f4" stroke="#77767b" stroke-width="2.5"/>
            </g>
        </g>
    </mask>
    <mask id="f">
        <g filter="url(#d)">
            <rect fill-opacity="0.8" height="128" width="128"/>
        </g>
    </mask>
    <linearGradient id="g" gradientTransform="matrix(0 0.37 -0.98462 0 295.38501 -30.360001)" gradientUnits="userSpaceOnUse" x1="300" x2="428" y1="235" y2="235">
        <stop offset="0" stop-color="#f9f06b"/>
        <stop offset="1" stop-color="#f5c211"/>
    </linearGradient>
    <clipPath id="h">
        <rect height="128" width="128"/>
    </clipPath>
    <clipPath id="i">
        <rect height="128" width="128"/>
    </clipPath>
    <path d="m 28 16 h 72 c 4.417969 0 8 3.582031 8 8 v 88 c 0 4.417969 -3.582031 8 -8 8 h -72 c -4.417969 0 -8 -3.582031 -8 -8 v -88 c 0 -4.417969 3.582031 -8 8 -8 z m 0 0" fill="url(#a)"/>
    <path d="m 28 8 h 72 c 4.417969 0 8 3.582031 8 8 v 92 c 0 4.417969 -3.582031 8 -8 8 h -72 c -4.417969 0 -8 -3.582031 -8 -8 v -92 c 0 -4.417969 3.582031 -8 8 -8 z m 0 0" fill="#deddda"/>
    <path d="m 31.457031 60.691406 h 18.832031 c 0.945313 0 1.710938 0.429688 1.710938 0.957032 v 10.074218 c 0 0.53125 -0.765625 0.960938 -1.710938 0.960938 h -18.832031 c -0.945312 0 -1.710937 -0.429688 -1.710937 -0.960938 v -10.074218 c 0 -0.527344 0.765625 -0.957032 1.710937 -0.957032 z m 0 0" fill="#c0bfbc"/>
    <path d="m 31.457031 60.210938 h 18.832031 c 0.945313 0 1.710938 0.429687 1.710938 0.957031 v 10.074219 c 0 0.53125 -0.765625 0.960937 -1.710938 0.960937 h -18.832031 c -0.945312 0 -1.710937 -0.429687 -1.710937 -0.960937 v -10.074219 c 0 -0.527344 0.765625 -0.957031 1.710937 -0.957031 z m 0 0" fill="#c0bfbc"/>
    <path d="m 31.457031 77.074219 h 18.832031 c 0.945313 0 1.710938 0.429687 1.710938 0.957031 v 10.074219 c 0 0.53125 -0.765625 0.960937 -1.710938 0.960937 h -18.832031 c -0.945312 0 -1.710937 -0.429687 -1.710937 -0.960937 v -10.074219 c 0 -0.527344 0.765625 -0.957031 1.710937 -0.957031 z m 0 0" fill="#c0bfbc"/>
    <path d="m 31.457031 76.59375 h 18.832031 c 0.945313 0 1.710938 0.429688 1.710938 0.957031 v 10.074219 c 0 0.53125 -0.765625 0.960938 -1.710938 0.960938 h -18.832031 c -0.945312 0 -1.710937 -0.429688 -1.710937 -0.960938 v -10.074219 c 0 -0.527343 0.765625 -0.957031 1.710937 -0.957031 z m 0 0" fill="#c0bfbc"/>
    <path d="m 89.644531 103.601562 v -37.933593 c 0 -1.90625 0.355469 -3.449219 0.796875 -3.449219 h 8.371094 c 0.4375 0 0.796875 1.542969 0.796875 3.449219 v 37.933593 c 0 1.90625 -0.359375 3.449219 -0.796875 3.449219 h -8.371094 c -0.441406 0 -0.796875 -1.542969 -0.796875 -3.449219 z m 0 0" fill="#c01c28"/>
    <path d="m 89.246094 103.601562 v -37.933593 c 0 -1.90625 0.355468 -3.449219 0.796875 -3.449219 h 8.371093 c 0.4375 0 0.796876 1.542969 0.796876 3.449219 v 37.933593 c 0 1.90625 -0.359376 3.449219 -0.796876 3.449219 h -8.371093 c -0.441407 0 -0.796875 -1.542969 -0.796875 -3.449219 z m 0 0" fill="#c01c28"/>
    <path d="m 89.210938 99.414062 v -38.683593 c 0 -1.941407 0.371093 -3.515625 0.828124 -3.515625 h 8.703126 c 0.460937 0 0.832031 1.574218 0.832031 3.515625 v 38.683593 c 0 1.941407 -0.371094 3.515626 -0.832031 3.515626 h -8.703126 c -0.457031 0 -0.828124 -1.574219 -0.828124 -3.515626 z m 0 0" fill="#ed333b"/>
    <path d="m 33.613281 95.058594 h 42.519531 c 2.136719 0 3.867188 0.429687 3.867188 0.957031 v 10.074219 c 0 0.53125 -1.730469 0.960937 -3.867188 0.960937 h -42.519531 c -2.136719 0 -3.867187 -0.429687 -3.867187 -0.960937 v -10.074219 c 0 -0.527344 1.730468 -0.957031 3.867187 -0.957031 z m 0 0" fill="#26a269"/>
    <path d="m 33.613281 94.578125 h 42.519531 c 2.136719 0 3.867188 0.429687 3.867188 0.960937 v 10.074219 c 0 0.527344 -1.730469 0.957031 -3.867188 0.957031 h -42.519531 c -2.136719 0 -3.867187 -0.429687 -3.867187 -0.957031 v -10.074219 c 0 -0.53125 1.730468 -0.960937 3.867187 -0.960937 z m 0 0" fill="#26a269"/>
    <path d="m 59.457031 77.074219 h 18.832031 c 0.945313 0 1.710938 0.429687 1.710938 0.957031 v 10.074219 c 0 0.53125 -0.765625 0.960937 -1.710938 0.960937 h -18.832031 c -0.945312 0 -1.710937 -0.429687 -1.710937 -0.960937 v -10.074219 c 0 -0.527344 0.765625 -0.957031 1.710937 -0.957031 z m 0 0" fill="#c0bfbc"/>
    <path d="m 59.457031 76.59375 h 18.832031 c 0.945313 0 1.710938 0.429688 1.710938 0.957031 v 10.074219 c 0 0.53125 -0.765625 0.960938 -1.710938 0.960938 h -18.832031 c -0.945312 0 -1.710937 -0.429688 -1.710937 -0.960938 v -10.074219 c 0 -0.527343 0.765625 -0.957031 1.710937 -0.957031 z m 0 0" fill="#c0bfbc"/>
    <path d="m 59.457031 60.691406 h 18.832031 c 0.945313 0 1.710938 0.429688 1.710938 0.957032 v 10.074218 c 0 0.53125 -0.765625 0.960938 -1.710938 0.960938 h -18.832031 c -0.945312 0 -1.710937 -0.429688 -1.710937 -0.960938 v -10.074218 c 0 -0.527344 0.765625 -0.957032 1.710937 -0.957032 z m 0 0" fill="#c0bfbc"/>
    <path d="m 59.457031 60.210938 h 18.832031 c 0.945313 0 1.710938 0.429687 1.710938 0.957031 v 10.074219 c 0 0.53125 -0.765625 0.960937 -1.710938 0.960937 h -18.832031 c -0.945312 0 -1.710937 -0.429687 -1.710937 -0.960937 v -10.074219 c 0 -0.527344 0.765625 -0.957031 1.710937 -0.957031 z m 0 0" fill="#c0bfbc"/>
    <path d="m 33.613281 92.015625 h 42.519531 c 2.136719 0 3.867188 0.390625 3.867188 0.871094 v 9.179687 c 0 0.480469 -1.730469 0.875 -3.867188 0.875 h -42.519531 c -2.136719 0 -3.867187 -0.394531 -3.867187 -0.875 v -9.179687 c 0 -0.480469 1.730468 -0.871094 3.867187 -0.871094 z m 0 0" fill="#33d17a"/>
    <path d="m 33.613281 91.578125 h 42.519531 c 2.136719 0 3.867188 0.390625 3.867188 0.875 v 9.175781 c 0 0.480469 -1.730469 0.875 -3.867188 0.875 h -42.519531 c -2.136719 0 -3.867187 -0.394531 -3.867187 -0.875 v -9.175781 c 0 -0.484375 1.730468 -0.875 3.867187 -0.875 z m 0 0" fill="#33d17a"/>
    <g fill="#ffffff">
        <path d="m 31.457031 74.019531 h 18.832031 c 0.945313 0 1.710938 0.378907 1.710938 0.851563 v 8.933594 c 0 0.46875 -0.765625 0.851562 -1.710938 0.851562 h -18.832031 c -0.945312 0 -1.710937 -0.382812 -1.710937 -0.851562 v -8.933594 c 0 -0.472656 0.765625 -0.851563 1.710937 -0.851563 z m 0 0"/>
        <path d="m 31.457031 73.59375 h 18.832031 c 0.945313 0 1.710938 0.378906 1.710938 0.851562 v 8.933594 c 0 0.472656 -0.765625 0.851563 -1.710938 0.851563 h -18.832031 c -0.945312 0 -1.710937 -0.378907 -1.710937 -0.851563 v -8.933594 c 0 -0.472656 0.765625 -0.851562 1.710937 -0.851562 z m 0 0"/>
        <path d="m 59.457031 57.636719 h 18.832031 c 0.945313 0 1.710938 0.378906 1.710938 0.851562 v 8.933594 c 0 0.46875 -0.765625 0.851563 -1.710938 0.851563 h -18.832031 c -0.945312 0 -1.710937 -0.382813 -1.710937 -0.851563 v -8.933594 c 0 -0.472656 0.765625 -0.851562 1.710937 -0.851562 z m 0 0"/>
        <path d="m 59.457031 57.210938 h 18.832031 c 0.945313 0 1.710938 0.378906 1.710938 0.851562 v 8.933594 c 0 0.46875 -0.765625 0.851562 -1.710938 0.851562 h -18.832031 c -0.945312 0 -1.710937 -0.382812 -1.710937 -0.851562 v -8.933594 c 0 -0.472656 0.765625 -0.851562 1.710937 -0.851562 z m 0 0"/>
        <path d="m 59.457031 74.019531 h 18.832031 c 0.945313 0 1.710938 0.378907 1.710938 0.851563 v 8.933594 c 0 0.46875 -0.765625 0.851562 -1.710938 0.851562 h -18.832031 c -0.945312 0 -1.710937 -0.382812 -1.710937 -0.851562 v -8.933594 c 0 -0.472656 0.765625 -0.851563 1.710937 -0.851563 z m 0 0"/>
        <path d="m 59.457031 73.59375 h 18.832031 c 0.945313 0 1.710938 0.378906 1.710938 0.851562 v 8.933594 c 0 0.46875 -0.765625 0.851563 -1.710938 0.851563 h -18.832031 c -0.945312 0 -1.710937 -0.382813 -1.710937 -0.851563 v -8.933594 c 0 -0.472656 0.765625 -0.851562 1.710937 -0.851562 z m 0 0"/>
        <path d="m 31.457031 57.636719 h 18.832031 c 0.945313 0 1.710938 0.378906 1.710938 0.851562 v 8.933594 c 0 0.46875 -0.765625 0.851563 -1.710938 0.851563 h -18.832031 c -0.945312 0 -1.710937 -0.382813 -1.710937 -0.851563 v -8.933594 c 0 -0.472656 0.765625 -0.851562 1.710937 -0.851562 z m 0 0"/>
        <path d="m 31.457031 57.210938 h 18.832031 c 0.945313 0 1.710938 0.378906 1.710938 0.851562 v 8.933594 c 0 0.46875 -0.765625 0.851562 -1.710938 0.851562 h -18.832031 c -0.945312 0 -1.710937 -0.382812 -1.710937 -0.851562 v -8.933594 c 0 -0.472656 0.765625 -0.851562 1.710937 -0.851562 z m 0 0"/>
    </g>
    <path d="m 34.476562 19.480469 h 60.390626 c 4.132812 0 4.132812 0 4.132812 4.253906 v 21.648437 c 0 4.601563 0.433594 4.171876 -2.765625 4.160157 l -62.03125 -0.183594 c -3.828125 0 -3.828125 -0.410156 -3.828125 -4.519531 v -21.265625 c 0 -4.09375 0 -4.09375 4.101562 -4.09375 z m 0 0" fill="#c0bfbc"/>
    <path d="m 34.710938 17.984375 h 60.242187 c 4.121094 0 4.121094 0 4.121094 3.597656 v 18.304688 c 0 3.894531 0.433593 3.53125 -2.757813 3.519531 l -61.878906 -0.152344 c -3.820312 0 -3.820312 -0.347656 -3.820312 -3.824218 v -17.984376 c 0 -3.460937 0 -3.460937 4.09375 -3.460937 z m 0 0" fill="#f6f5f4" stroke="#77767b" stroke-width="2.5"/>
    <g clip-path="url(#i)" mask="url(#e)">
        <g clip-path="url(#h)" mask="url(#f)">
            <path d="m 128 80.640625 v 47.359375 h -128 v -47.359375 z m 0 0" fill="url(#g)"/>
            <path d="m 13.308594 80.640625 l 47.355468 47.359375 h 21.214844 l -47.359375 -47.359375 z m 42.421875 0 l 47.363281 47.359375 h 21.214844 l -47.363282 -47.359375 z m 42.429687 0 l 29.839844 29.839844 v -21.210938 l -8.628906 -8.628906 z m -98.160156 7.90625 v 21.214844 l 18.238281 18.238281 h 21.214844 z m 0 0"/>
        </g>
    </g>
</svg>
